<svg xmlns="http://www.w3.org/2000/svg" xmlns:xlink="http://www.w3.org/1999/xlink" viewBox="0 0 174.55 59.36"><defs><linearGradient id="linear-gradient" x1="33.52" y1="81.29" x2="131.21" y2="-16.39" gradientUnits="userSpaceOnUse"><stop offset="0" stop-color="#b51fa3"/><stop offset="0.5" stop-color="#ffa300"/><stop offset="1" stop-color="#db311b"/></linearGradient></defs><g id="Layer_2" data-name="Layer 2"><g id="Layer_1-2" data-name="Layer 1"><path d="M65.44,29.47a9,9,0,0,0-6.69-2.92,7.7,7.7,0,0,0-6.5,3.39V18.66H46.33V47.8h5.92V45.08a8.15,8.15,0,0,0,6.5,3.11,9,9,0,0,0,6.71-2.9,10.88,10.88,0,0,0,2.78-7.88A11,11,0,0,0,65.44,29.47ZM60.85,41.55a4.72,4.72,0,0,1-3.62,1.62,4.65,4.65,0,0,1-3.6-1.62,5.93,5.93,0,0,1-1.46-4.14,6,6,0,0,1,1.46-4.22,4.65,4.65,0,0,1,3.6-1.62,4.72,4.72,0,0,1,3.62,1.62,5.85,5.85,0,0,1,1.48,4.14A6,6,0,0,1,60.85,41.55Zm8.91,16.07a14.45,14.45,0,0,1-2.57-.23V52.76a8.7,8.7,0,0,0,1.25.11c1.4,0,2.1-.8,2.1-2.41V26.94h5.92v24Q76.46,57.62,69.76,57.62Zm.62-33v-6h6.23v6ZM79.69,47.8V18.66H85.6V29.9a7.63,7.63,0,0,1,6.11-3.35,6.71,6.71,0,0,1,5.22,2.06A8.2,8.2,0,0,1,98.8,34.3V47.8H92.88V36.16A4.68,4.68,0,0,0,91.94,33a3.27,3.27,0,0,0-2.64-1.09A3.49,3.49,0,0,0,86.59,33a4.54,4.54,0,0,0-1,3.15V47.8Zm21.67,0V41.57h6.31V47.8Zm23.7-29.14v11a8.13,8.13,0,0,0-6.49-3.11,9,9,0,0,0-6.72,2.9,10.92,10.92,0,0,0-2.78,7.88,11,11,0,0,0,2.8,7.94,9,9,0,0,0,6.7,2.92,7.68,7.68,0,0,0,6.49-3.39v3H131V18.66Zm-1.38,22.89a4.65,4.65,0,0,1-3.6,1.62,4.7,4.7,0,0,1-3.61-1.62A5.85,5.85,0,0,1,115,37.41a6,6,0,0,1,1.48-4.22,4.7,4.7,0,0,1,3.61-1.62,4.65,4.65,0,0,1,3.6,1.62,5.88,5.88,0,0,1,1.46,4.14A6,6,0,0,1,123.68,41.55Zm29.72-3.67a12.5,12.5,0,0,0-2.61-8.06,9.08,9.08,0,0,0-7.55-3.27,9.63,9.63,0,0,0-7.39,3.15,10.92,10.92,0,0,0-2.92,7.71A10.49,10.49,0,0,0,136,45.25a10.72,10.72,0,0,0,7.82,3,10.4,10.4,0,0,0,8.53-3.89l-4.18-3.13c-1.53,1.43-2.43,2.27-4.27,2.27a5.19,5.19,0,0,1-3.34-1.05,5.07,5.07,0,0,1-1.76-3h14.52C153.37,38.71,153.4,38.19,153.4,37.88ZM138.73,36a6.81,6.81,0,0,1,1.53-3.55,4,4,0,0,1,3-1.19,4,4,0,0,1,3,1.2A6.68,6.68,0,0,1,147.64,36Zm22.15,11.68-8.26-20.78h6.27l4.67,14,4.82-14h6.17l-8.3,20.77ZM17.62,0a1.46,1.46,0,0,0,0,.69,32.72,32.72,0,0,1,.66,10.06A15.5,15.5,0,0,1,14.93,19c-.58.7-1.2,1.36-1.84,2.09a16.64,16.64,0,0,0-10-8.53c.05.25.06.36.09.46a20.56,20.56,0,0,1,.07,11.91c-.68,2.45-1.45,4.87-2.22,7.29A20.47,20.47,0,0,0,.47,43,21,21,0,0,0,7.88,55.47c.77.61,1.6,1.13,2.42,1.68a17.43,17.43,0,0,0,5.44,2.21c-1.08-.71-2.37-1.45-3.55-2.36A12,12,0,0,1,8,50.09a9.5,9.5,0,0,1,.27-6.31c.62-1.4,1.24-2.79,1.82-4.21a12.39,12.39,0,0,0,1-6.69c-.08-.52-.17-1-.26-1.63A9.47,9.47,0,0,1,15.16,36a13.07,13.07,0,0,1,.64-2.68,45.61,45.61,0,0,1,2.5-4.4c1.05-1.67,2.2-3.29,2.21-5.38,0,0,.07-.05.15-.1a7.2,7.2,0,0,1,1,3.54c0,1.77-.13,3.54-.11,5.31A4.46,4.46,0,0,0,23.31,36,10.44,10.44,0,0,1,29.47,31c-.06.32-.11.55-.14.77A29.35,29.35,0,0,0,28.92,35a18,18,0,0,0,1.34,6.54,14.26,14.26,0,0,1,.38,9.68A12.32,12.32,0,0,1,25,58.33c-.64.36-1.29.68-1.94,1a19.45,19.45,0,0,0,2.4-.7,16.54,16.54,0,0,0,6.44-3.91,21.54,21.54,0,0,0,2.95-3.38,22.27,22.27,0,0,0,3.78-9.78,14.92,14.92,0,0,0-.89-8.25c-1-2.35-2.05-4.69-3-7a20.39,20.39,0,0,1-1.56-10.85c.12-.83.28-1.65.43-2.55A15.46,15.46,0,0,0,26,21.37C26.57,12.92,24.07,5.69,17.62,0Zm-.16,41.87a3.84,3.84,0,0,0-3.91.53,5.47,5.47,0,0,0-2.13,5.13c.26,1.71,1.41,2.82,2.46,4,1.31,1.49,2.65,3,4,4.42a19.17,19.17,0,0,0,1.67,1.44,5.2,5.2,0,0,1,.38-.47c1.69-1.83,3.39-3.64,5.07-5.47a10.79,10.79,0,0,0,1.46-1.79,5.14,5.14,0,0,0-.43-6.19c-1.16-1.41-2.43-2.28-4.43-1.77a13.83,13.83,0,0,0-2.5,1.24A8.31,8.31,0,0,0,17.46,41.87Z" style="fill:url(#linear-gradient)"/></g></g></svg>